<svg xmlns="http://www.w3.org/2000/svg" width="64" height="64" viewBox="0 0 64 64" fill="none"><rect width="64" height="64" fill="white"></rect><path d="M53.5625 30.4H52.125V24C52.125 23.1513 51.8221 22.3374 51.2829 21.7373C50.7438 21.1371 50.0125 20.8 49.25 20.8H46.375V19.2C46.375 18.3513 46.0721 17.5374 45.5329 16.9373C44.9938 16.3371 44.2625 16 43.5 16H39.1875C38.425 16 37.6937 16.3371 37.1546 16.9373C36.6154 17.5374 36.3125 18.3513 36.3125 19.2V30.4H27.6875V19.2C27.6875 18.3513 27.3846 17.5374 26.8454 16.9373C26.3063 16.3371 25.575 16 24.8125 16H20.5C19.7375 16 19.0062 16.3371 18.4671 16.9373C17.9279 17.5374 17.625 18.3513 17.625 19.2V20.8H14.75C13.9875 20.8 13.2562 21.1371 12.7171 21.7373C12.1779 22.3374 11.875 23.1513 11.875 24V30.4H10.4375C10.0563 30.4 9.69062 30.5686 9.42103 30.8686C9.15145 31.1687 9 31.5757 9 32C9 32.4243 9.15145 32.8313 9.42103 33.1314C9.69062 33.4314 10.0563 33.6 10.4375 33.6H11.875V40C11.875 40.8487 12.1779 41.6626 12.7171 42.2627C13.2562 42.8629 13.9875 43.2 14.75 43.2H17.625V44.8C17.625 45.6487 17.9279 46.4626 18.4671 47.0627C19.0062 47.6629 19.7375 48 20.5 48H24.8125C25.575 48 26.3063 47.6629 26.8454 47.0627C27.3846 46.4626 27.6875 45.6487 27.6875 44.8V33.6H36.3125V44.8C36.3125 45.6487 36.6154 46.4626 37.1546 47.0627C37.6937 47.6629 38.425 48 39.1875 48H43.5C44.2625 48 44.9938 47.6629 45.5329 47.0627C46.0721 46.4626 46.375 45.6487 46.375 44.8V43.2H49.25C50.0125 43.2 50.7438 42.8629 51.2829 42.2627C51.8221 41.6626 52.125 40.8487 52.125 40V33.6H53.5625C53.9437 33.6 54.3094 33.4314 54.579 33.1314C54.8486 32.8313 55 32.4243 55 32C55 31.5757 54.8486 31.1687 54.579 30.8686C54.3094 30.5686 53.9437 30.4 53.5625 30.4ZM14.75 40V24H17.625V40H14.75ZM24.8125 44.8H20.5V19.2H24.8125V44.8ZM43.5 44.8H39.1875V19.2H43.5V41.564C43.5 41.576 43.5 41.588 43.5 41.6C43.5 41.612 43.5 41.624 43.5 41.636V44.8ZM49.25 40H46.375V24H49.25V40Z" fill="black"></path></svg>